<svg  version="1.1" xmlns="http://www.w3.org/2000/svg" viewBox="0 0 22 22">
<rect x="4" y="4" width="14" height="12" fill="none" stroke="#333" stroke-width=".5" stroke-linejoin="round" />
<rect x="4" y="8" width="2" height="2" fill="none" stroke="#333" stroke-width=".5" stroke-linejoin="round" />
<rect x="6" y="8" width="2" height="2" fill="none" stroke="#333" stroke-width=".5" stroke-linejoin="round" />
<rect x="8" y="8" width="2" height="2" fill="none" stroke="#333" stroke-width=".5" stroke-linejoin="round" />
<rect x="10" y="8" width="2" height="2" fill="none" stroke="#333" stroke-width=".5" stroke-linejoin="round" />
<rect x="12" y="8" width="2" height="2" fill="none" stroke="#333" stroke-width=".5" stroke-linejoin="round" />
<rect x="14" y="8" width="2" height="2" fill="none" stroke="#333" stroke-width=".5" stroke-linejoin="round" />
<rect x="16" y="8" width="2" height="2" fill="none" stroke="#333" stroke-width=".5" stroke-linejoin="round" />
<rect x="4" y="10" width="2" height="2" fill="none" stroke="#333" stroke-width=".5" stroke-linejoin="round" />
<rect x="6" y="10" width="2" height="2" fill="none" stroke="#333" stroke-width=".5" stroke-linejoin="round" />
<rect x="8" y="10" width="2" height="2" fill="none" stroke="#333" stroke-width=".5" stroke-linejoin="round" />
<rect x="10" y="10" width="2" height="2" fill="none" stroke="#333" stroke-width=".5" stroke-linejoin="round" />
<rect x="12" y="10" width="2" height="2" fill="none" stroke="#333" stroke-width=".5" stroke-linejoin="round" />
<rect x="14" y="10" width="2" height="2" fill="none" stroke="#333" stroke-width=".5" stroke-linejoin="round" />
<rect x="16" y="10" width="2" height="2" fill="none" stroke="#333" stroke-width=".5" stroke-linejoin="round" />
<rect x="4" y="12" width="2" height="2" fill="none" stroke="#333" stroke-width=".5" stroke-linejoin="round" />
<rect x="6" y="12" width="2" height="2" fill="none" stroke="#333" stroke-width=".5" stroke-linejoin="round" />
<rect x="8" y="12" width="2" height="2" fill="none" stroke="#333" stroke-width=".5" stroke-linejoin="round" />
<rect x="10" y="12" width="2" height="2" fill="none" stroke="#333" stroke-width=".5" stroke-linejoin="round" />
<rect x="12" y="12" width="2" height="2" fill="none" stroke="#333" stroke-width=".5" stroke-linejoin="round" />
<rect x="14" y="12" width="2" height="2" fill="none" stroke="#333" stroke-width=".5" stroke-linejoin="round" />
<rect x="16" y="12" width="2" height="2" fill="none" stroke="#333" stroke-width=".5" stroke-linejoin="round" />
<rect x="4" y="14" width="2" height="2" fill="none" stroke="#333" stroke-width=".5" stroke-linejoin="round" />
<rect x="6" y="14" width="2" height="2" fill="none" stroke="#333" stroke-width=".5" stroke-linejoin="round" />
<rect x="8" y="14" width="2" height="2" fill="none" stroke="#333" stroke-width=".5" stroke-linejoin="round" />
<rect x="10" y="14" width="2" height="2" fill="none" stroke="#333" stroke-width=".5" stroke-linejoin="round" />
<rect x="12" y="14" width="2" height="2" fill="none" stroke="#333" stroke-width=".5" stroke-linejoin="round" />
<rect x="14" y="14" width="2" height="2" fill="none" stroke="#333" stroke-width=".5" stroke-linejoin="round" />
<rect x="16" y="14" width="2" height="2" fill="none" stroke="#333" stroke-width=".5" stroke-linejoin="round" />
<line x1="8" y1="3" x2="8" y2="5" stroke="#333" stroke-width=".5" stroke-linecap="round"/>
<line x1="14" y1="3" x2="14" y2="5" stroke="#333" stroke-width=".5" stroke-linecap="round"/>
</svg>